<?xml version="1.0" encoding="iso-8859-1"?>
<!-- Generator: Adobe Illustrator 18.0.0, SVG Export Plug-In . SVG Version: 6.00 Build 0)  -->
<!DOCTYPE svg PUBLIC "-//W3C//DTD SVG 1.1//EN" "http://www.w3.org/Graphics/SVG/1.1/DTD/svg11.dtd">
<svg version="1.1" id="Capa_1" xmlns="http://www.w3.org/2000/svg" xmlns:xlink="http://www.w3.org/1999/xlink" x="0px" y="0px"
	 viewBox="0 0 487.6 487.6" style="enable-background:new 0 0 487.6 487.6;" xml:space="preserve">
<g>
	<path d="M240.143,138.867c-20.31,0-39.405,7.91-53.768,22.271c-14.362,14.362-22.271,33.457-22.271,53.768
		s7.909,39.406,22.271,53.768c14.361,14.362,33.456,22.271,53.767,22.271c20.311,0,39.406-7.91,53.769-22.271
		c14.362-14.362,22.273-33.458,22.273-53.768c0-20.311-7.91-39.406-22.273-53.768C279.549,146.777,260.454,138.867,240.143,138.867z
		 M274.112,248.875c-9.074,9.074-21.138,14.071-33.97,14.071c-12.831,0-24.895-4.997-33.968-14.07
		c-9.073-9.074-14.07-21.137-14.07-33.969c0-12.832,4.997-24.895,14.07-33.969c9.073-9.073,21.137-14.07,33.969-14.07
		c12.831,0,24.895,4.997,33.969,14.071c9.073,9.073,14.07,21.137,14.071,33.968C288.184,227.738,283.185,239.802,274.112,248.875z"
		/>
	<path d="M240.131,193.608c-5.692,0-11.045,2.215-15.072,6.241c-4.027,4.026-6.243,9.379-6.24,15.072
		c0.004,5.693,2.226,11.045,6.257,15.066c4.023,4.015,9.371,6.225,15.057,6.225c5.692,0,11.044-2.216,15.071-6.241
		c4.026-4.026,6.242-9.378,6.24-15.07c-0.003-5.693-2.225-11.044-6.258-15.069C251.162,195.819,245.815,193.608,240.131,193.608z"/>
	<path d="M429.848,0L356.08,0.001c-7.732,0-14,6.268-14,14c0,7.732,6.269,14,14,14l49.984,0l-79.362,79.364
		c-23.966-19.186-53.85-29.615-85.616-29.615c-37.514,0-74.116,15.086-100.421,41.391L37.835,221.972
		c-5.468,5.467-5.468,14.332,0,19.799c2.733,2.734,6.316,4.101,9.899,4.101s7.166-1.367,9.899-4.101l44.554-44.554
		c-0.777,6.193-1.136,12.48-1.042,18.831c0.531,36.084,15.22,70.354,41.361,96.495c22.787,22.787,52.077,36.647,83.637,39.835
		v60.558h-35.41c-7.732,0-14,6.268-14,14s6.268,14,14,14h35.41V473.6c0,7.732,6.268,14,14,14c7.732,0,14-6.268,14-14v-32.665h35.409
		c7.732,0,14-6.268,14-14s-6.268-14-14-14h-35.409v-60.539c31.499-3.143,60.717-16.941,83.42-39.645
		c0.007-0.007,0.013-0.014,0.021-0.021l102.595-102.602c5.468-5.467,5.467-14.332,0-19.799c-5.469-5.467-14.332-5.467-19.799,0.001
		l-43.574,43.577c0.851-6.204,1.298-12.504,1.309-18.874c0.055-32.537-11.037-63.326-31.469-88.016l79.22-79.222l-0.001,49.988
		c0,7.732,6.268,14,14,14c7.731,0,14-6.268,14-13.999l0.002-73.769C453.866,10.774,443.092,0,429.848,0z M317.764,292.953
		c-20.724,20.724-48.256,32.137-77.524,32.137c-29.398,0-57.076-11.487-77.935-32.346c-43.639-43.64-44.448-111.198-1.842-153.805
		c21.093-21.092,50.479-33.189,80.622-33.189c29.39,0,56.697,11.123,76.894,31.32c20.772,20.771,32.184,48.443,32.134,77.917
		C350.064,244.453,338.576,272.142,317.764,292.953z"/>
</g>
<g>
</g>
<g>
</g>
<g>
</g>
<g>
</g>
<g>
</g>
<g>
</g>
<g>
</g>
<g>
</g>
<g>
</g>
<g>
</g>
<g>
</g>
<g>
</g>
<g>
</g>
<g>
</g>
<g>
</g>
</svg>
