<?xml version="1.0" encoding="iso-8859-1"?>
<!-- Generator: Adobe Illustrator 18.0.0, SVG Export Plug-In . SVG Version: 6.00 Build 0)  -->
<!DOCTYPE svg PUBLIC "-//W3C//DTD SVG 1.1//EN" "http://www.w3.org/Graphics/SVG/1.1/DTD/svg11.dtd">
<svg version="1.1" id="Capa_1" xmlns="http://www.w3.org/2000/svg" xmlns:xlink="http://www.w3.org/1999/xlink" x="0px" y="0px"
	 viewBox="0 0 478.77 478.77" style="enable-background:new 0 0 478.77 478.77;" xml:space="preserve">
<g>
	<path d="M386.787,147.403C386.787,66.125,320.663,0,239.385,0S91.983,66.124,91.983,147.403
		c0,76.556,58.667,139.658,133.402,146.733v79.507l-35.813-21.063c-6.665-3.919-15.245-1.694-19.165,4.971
		c-3.919,6.665-1.694,15.245,4.971,19.165l36.391,21.403l-36.391,21.402c-6.665,3.92-8.89,12.501-4.971,19.165
		c2.609,4.436,7.282,6.905,12.081,6.905c2.411,0,4.855-0.624,7.084-1.935l35.813-21.063v42.175c0,7.732,6.268,14,14,14
		c7.732,0,14-6.268,14-14v-42.175l35.813,21.063c2.229,1.311,4.672,1.935,7.084,1.935c4.799,0,9.472-2.47,12.081-6.905
		c3.919-6.665,1.694-15.245-4.971-19.165l-36.391-21.402l36.391-21.403c6.665-3.92,8.89-12.501,4.971-19.165
		c-3.92-6.664-12.5-8.889-19.165-4.971l-35.813,21.063v-79.507C328.12,287.061,386.787,223.958,386.787,147.403z M119.983,147.403
		C119.983,81.564,173.546,28,239.385,28s119.402,53.564,119.402,119.403c0,65.838-53.563,119.401-119.402,119.401
		S119.983,213.241,119.983,147.403z"/>
	<path d="M320.086,147.403c0-44.499-36.203-80.702-80.701-80.702s-80.701,36.203-80.701,80.701s36.203,80.701,80.701,80.701
		S320.086,191.901,320.086,147.403z M186.684,147.402c0-29.06,23.642-52.701,52.701-52.701s52.701,23.642,52.701,52.702
		c0,29.059-23.642,52.701-52.701,52.701S186.684,176.462,186.684,147.402z"/>
</g>
<g>
</g>
<g>
</g>
<g>
</g>
<g>
</g>
<g>
</g>
<g>
</g>
<g>
</g>
<g>
</g>
<g>
</g>
<g>
</g>
<g>
</g>
<g>
</g>
<g>
</g>
<g>
</g>
<g>
</g>
</svg>
