<?xml version="1.0" standalone="no"?>
<!DOCTYPE svg PUBLIC "-//W3C//DTD SVG 20010904//EN"
 "http://www.w3.org/TR/2001/REC-SVG-20010904/DTD/svg10.dtd">
<svg id="svg" xmlns="http://www.w3.org/2000/svg" xmlns:xlink="http://www.w3.org/1999/xlink" width="400" height="400" viewBox="0, 0, 400,400"><g id="svgg"><path id="path0" d="M185.178 45.952 L 185.000 62.570 167.119 52.285 C 157.285 46.628,149.035 42.005,148.786 42.011 C 148.406 42.020,134.066 66.330,133.468 67.979 C 133.358 68.281,141.071 72.984,150.608 78.430 C 160.144 83.877,167.959 88.492,167.974 88.685 C 167.988 88.879,160.575 93.303,151.500 98.517 C 142.425 103.730,134.578 108.269,134.062 108.602 C 133.311 109.087,134.224 111.112,138.648 118.771 C 149.156 136.961,148.548 136.106,150.208 135.040 C 151.010 134.525,159.242 129.748,168.500 124.425 L 185.333 114.746 185.333 135.963 L 185.333 157.180 181.567 157.650 C 132.664 163.760,93.069 211.045,93.069 263.333 C 93.069 359.180,208.451 406.687,276.000 338.654 C 335.803 278.422,304.067 174.887,220.667 158.133 L 214.333 156.860 214.157 135.709 L 213.981 114.558 217.491 116.569 C 219.421 117.675,227.744 122.481,235.986 127.248 C 244.229 132.016,251.025 135.860,251.090 135.792 C 251.771 135.067,266.000 109.914,266.000 109.433 C 266.000 109.078,258.177 104.288,248.615 98.789 L 231.230 88.791 235.115 86.528 C 237.252 85.283,245.211 80.693,252.803 76.328 L 266.605 68.391 265.391 66.362 C 264.723 65.246,261.260 59.308,257.695 53.167 C 254.131 47.025,251.015 42.000,250.772 42.000 C 250.529 42.000,242.256 46.650,232.387 52.333 C 222.518 58.017,214.344 62.667,214.222 62.667 C 214.100 62.667,214.000 55.167,214.000 46.000 L 214.000 29.333 199.678 29.333 L 185.356 29.333 185.178 45.952 M213.807 187.068 C 274.977 197.852,298.490 274.339,254.190 318.433 C 213.782 358.653,144.454 342.138,126.433 288.000 C 107.786 231.983,155.557 176.799,213.807 187.068 " stroke="none" fill="#000000" fill-rule="evenodd"></path></g></svg>