<svg xmlns="http://www.w3.org/2000/svg" xmlns:xlink="http://www.w3.org/1999/xlink" version="1.1" width="256" height="256" viewBox="0 0 256 256" xml:space="preserve">
<desc>Created with Fabric.js 1.7.22</desc>
<defs>
</defs>
<g transform="translate(128 128) scale(1.21 1.21)" style="">
	<g style="stroke: none; stroke-width: 0; stroke-dasharray: none; stroke-linecap: butt; stroke-linejoin: miter; stroke-miterlimit: 10; fill: none; fill-rule: nonzero; opacity: 1;" transform="translate(-104.85 -104.85000000000001) scale(2.33 2.33)" >
	<path d="M 59.66 57.578 c 3.918 -3.917 6.075 -9.125 6.075 -14.665 s -2.157 -10.748 -6.075 -14.665 c -3.324 -3.325 -7.582 -5.365 -12.18 -5.912 v -8.147 l 5.783 3.188 l 2.4 -4.353 l -5.52 -3.043 l 5.52 -3.043 l -2.4 -4.353 L 47.48 5.772 V 0 h -4.97 v 5.773 l -5.783 -3.188 l -2.4 4.353 l 5.52 3.043 l -5.52 3.043 l 2.4 4.353 l 5.783 -3.188 v 8.147 c -4.598 0.546 -8.856 2.587 -12.181 5.912 c -8.085 8.086 -8.086 21.244 0 29.33 h 0 c 3.411 3.411 7.726 5.365 12.18 5.898 v 5.144 h -6.178 v 4.97 h 6.178 v 6.896 l -4.42 -4.42 l -3.514 3.514 L 44.995 90 l 10.419 -10.419 L 51.9 76.066 l -4.42 4.42 v -6.896 h 6.177 v -4.97 H 47.48 v -5.144 C 51.934 62.943 56.249 60.988 59.66 57.578 z M 33.844 31.761 c 2.979 -2.978 6.939 -4.619 11.151 -4.619 s 8.172 1.64 11.15 4.619 c 2.383 2.383 3.892 5.399 4.407 8.665 H 29.445 C 29.948 37.253 31.403 34.202 33.844 31.761 z M 29.446 45.398 h 31.107 c -0.515 3.266 -2.024 6.282 -4.407 8.665 c -6.148 6.147 -16.152 6.147 -22.301 0 h 0 C 31.404 51.622 29.949 48.572 29.446 45.398 z" style="stroke: none; stroke-width: 1; stroke-dasharray: none; stroke-linecap: butt; stroke-linejoin: miter; stroke-miterlimit: 10; fill: rgb(0,0,0); fill-rule: nonzero; opacity: 1;" transform=" matrix(1 0 0 1 0 0) " stroke-linecap="round" />
</g>
</g>
</svg>